# Blender v2.80 (sub 75) OBJ File: 'scene.blend'
# www.blender.org
o shoe_left_b_heel_mesh2.001
v -32.489151 -15.423904 3.740440
v -32.509548 -15.278398 3.716420
v -32.489460 -15.278398 3.740510
v -32.551979 -15.278398 3.670260
v -32.530392 -15.278398 3.693000
v -32.551060 -15.714917 3.670051
v -32.574299 -15.278398 3.648271
v -32.573372 -15.714917 3.648050
v -32.529461 -15.714917 3.692790
v -32.621189 -15.278398 3.606630
v -32.597370 -15.278398 3.627030
v -32.620270 -15.714917 3.606421
v -32.671169 -15.278398 3.568640
v -32.645771 -15.278398 3.587151
v -32.670238 -15.714917 3.568430
v -32.697330 -15.278398 3.551280
v -32.696400 -15.714917 3.551070
v -32.644840 -15.714917 3.586940
v -32.596439 -15.714917 3.626821
v -32.752079 -15.278398 3.520600
v -32.724319 -15.278398 3.535191
v -32.751148 -15.714917 3.520391
v -32.810120 -15.278398 3.496950
v -32.780682 -15.278398 3.507740
v -32.809189 -15.714917 3.496740
v -32.840359 -15.278398 3.488680
v -32.839432 -15.714917 3.488470
v -32.779751 -15.714917 3.507530
v -32.902470 -15.278398 3.482450
v -32.871319 -15.278398 3.483561
v -32.901539 -15.714917 3.482240
v -32.963181 -15.278398 3.496540
v -32.933540 -15.278398 3.486401
v -32.962250 -15.714917 3.496330
v -32.988541 -15.714917 3.513210
v -32.932610 -15.714917 3.486190
v -32.870392 -15.714917 3.483350
v -32.723389 -15.714917 3.534980
v -32.508621 -15.714918 3.716210
v -32.488838 -15.569410 3.740370
v -32.488529 -15.714918 3.740300
v -33.025688 -15.278398 3.563271
v -33.010509 -15.278398 3.536201
v -33.024769 -15.714917 3.563060
v -33.040241 -15.278398 3.623490
v -33.035309 -15.278398 3.592780
v -33.039310 -15.714917 3.623281
v -33.041321 -15.278398 3.654560
v -33.040401 -15.714917 3.654350
v -33.034389 -15.714917 3.592570
v -33.034760 -15.278398 3.716320
v -33.039310 -15.278398 3.685560
v -33.033840 -15.714918 3.716110
v -33.019611 -15.278398 3.776590
v -33.028099 -15.278398 3.746660
v -33.027168 -15.714918 3.746450
v -33.009548 -15.278398 3.806020
v -33.018681 -15.714918 3.776370
v -33.038391 -15.714917 3.685350
v -32.985359 -15.278398 3.863501
v -32.998051 -15.278398 3.835100
v -32.997120 -15.714918 3.834890
v -32.956699 -15.278398 3.918720
v -32.971550 -15.278398 3.891380
v -32.970619 -15.714918 3.891171
v -32.940899 -15.278398 3.945520
v -32.955769 -15.714918 3.918510
v -32.984428 -15.714918 3.863290
v -32.906620 -15.278398 3.997450
v -32.924179 -15.278398 3.971770
v -32.923260 -15.714918 3.971560
v -32.868771 -15.423904 4.046990
v -32.869080 -15.278398 4.047060
v -32.888241 -15.278398 4.022560
v -32.905689 -15.714918 3.997240
v -32.939960 -15.714918 3.945311
v -33.008629 -15.714918 3.805810
v -32.868469 -15.569411 4.046920
v -32.989460 -15.278398 3.513420
v -33.009579 -15.714917 3.535990
v -32.887310 -15.714918 4.022350
v -32.868160 -15.714918 4.046850
v -32.859951 -15.496412 4.056890
v -32.855209 -15.278019 4.061990
v -32.869080 -15.278398 4.047060
v -32.868771 -15.423904 4.046990
v -32.840389 -15.495984 4.070590
v -32.840851 -15.277725 4.070700
v -32.868469 -15.569411 4.046920
v -32.832710 -15.495873 4.071940
v -32.824520 -15.495792 4.070920
v -32.833172 -15.277615 4.072041
v -32.816151 -15.277483 4.067380
v -32.824982 -15.277533 4.071031
v -32.815689 -15.495743 4.067270
v -32.806561 -15.277466 4.060830
v -32.832241 -15.714134 4.071830
v -32.854279 -15.714539 4.061780
v -32.839920 -15.714244 4.070490
v -32.868160 -15.714918 4.046850
v -32.815220 -15.714003 4.067170
v -32.806091 -15.495726 4.060720
v -32.805630 -15.713984 4.060620
v -32.488239 -15.714014 3.804320
v -32.488701 -15.495755 3.804430
v -32.824051 -15.714053 4.070820
v -32.489170 -15.277494 3.804530
v -32.480740 -15.277481 3.796530
v -32.480282 -15.495742 3.796420
v -32.474850 -15.495768 3.788560
v -32.475319 -15.277509 3.788660
v -32.472599 -15.277573 3.780870
v -32.472301 -15.277673 3.773080
v -32.472141 -15.495831 3.780770
v -32.477791 -15.277973 3.757210
v -32.471840 -15.495933 3.772970
v -32.481110 -15.496378 3.750960
v -32.489460 -15.278398 3.740510
v -32.489151 -15.423904 3.740440
v -32.479820 -15.714002 3.796320
v -32.474388 -15.714027 3.788450
v -32.471668 -15.714092 3.780660
v -32.471371 -15.714191 3.772870
v -32.477329 -15.496233 3.757111
v -32.476860 -15.714494 3.757000
v -32.488838 -15.569410 3.740370
v -32.488529 -15.714918 3.740300
v -32.476860 -15.714494 3.757000
v -32.488239 -15.714014 3.804320
v -32.488529 -15.714918 3.740300
v -32.508621 -15.714918 3.716210
v -32.529461 -15.714917 3.692790
v -32.551060 -15.714917 3.670051
v -32.474388 -15.714027 3.788450
v -32.471371 -15.714191 3.772870
v -32.479820 -15.714002 3.796320
v -32.573372 -15.714917 3.648050
v -32.471668 -15.714092 3.780660
v -32.955769 -15.714918 3.918510
v -32.596439 -15.714917 3.626821
v -32.620270 -15.714917 3.606421
v -32.970619 -15.714918 3.891171
v -32.696400 -15.714917 3.551070
v -33.018681 -15.714918 3.776370
v -32.723389 -15.714917 3.534980
v -33.008629 -15.714918 3.805810
v -32.670238 -15.714917 3.568430
v -33.033840 -15.714918 3.716110
v -32.779751 -15.714917 3.507530
v -32.751148 -15.714917 3.520391
v -33.027168 -15.714918 3.746450
v -32.984428 -15.714918 3.863290
v -32.644840 -15.714917 3.586940
v -33.039310 -15.714917 3.623281
v -32.870392 -15.714917 3.483350
v -32.839432 -15.714917 3.488470
v -32.809189 -15.714917 3.496740
v -33.040401 -15.714917 3.654350
v -32.901539 -15.714917 3.482240
v -33.024769 -15.714917 3.563060
v -32.932610 -15.714917 3.486190
v -33.009579 -15.714917 3.535990
v -32.962250 -15.714917 3.496330
v -33.034389 -15.714917 3.592570
v -33.038391 -15.714917 3.685350
v -32.997120 -15.714918 3.834890
v -32.805630 -15.713984 4.060620
v -32.815220 -15.714003 4.067170
v -32.854279 -15.714539 4.061780
v -32.824051 -15.714053 4.070820
v -32.939960 -15.714918 3.945311
v -32.839920 -15.714244 4.070490
v -32.832241 -15.714134 4.071830
v -32.868160 -15.714918 4.046850
v -32.887310 -15.714918 4.022350
v -32.923260 -15.714918 3.971560
v -32.905689 -15.714918 3.997240
v -32.988541 -15.714917 3.513210
vt 0.892111 0.000000
vt 0.998535 0.022939
vt 0.998535 0.000000
vt 0.998535 0.068818
vt 0.998535 0.045878
vt 0.679262 0.068818
vt 0.998535 0.091757
vt 0.679262 0.091757
vt 0.679262 0.045878
vt 0.998535 0.137635
vt 0.998535 0.114696
vt 0.679262 0.137635
vt 0.998535 0.183514
vt 0.998535 0.160575
vt 0.679262 0.183514
vt 0.998535 0.206453
vt 0.679262 0.206453
vt 0.679262 0.160575
vt 0.679262 0.114696
vt 0.998535 0.252331
vt 0.998535 0.229392
vt 0.679262 0.252331
vt 0.998535 0.298210
vt 0.998535 0.275271
vt 0.679262 0.298210
vt 0.998535 0.321149
vt 0.679262 0.321149
vt 0.679262 0.275271
vt 0.998535 0.367028
vt 0.998535 0.344088
vt 0.679262 0.367028
vt 0.998535 0.412906
vt 0.998535 0.389967
vt 0.679262 0.412906
vt 0.679262 0.435845
vt 0.679262 0.389967
vt 0.679262 0.344088
vt 0.679262 0.229392
vt 0.679262 0.022939
vt 0.785687 0.000000
vt 0.679262 0.000000
vt 0.998535 0.481578
vt 0.998535 0.458712
vt 0.679262 0.481578
vt 0.998535 0.527312
vt 0.998535 0.504445
vt 0.679262 0.527312
vt 0.998535 0.550178
vt 0.679262 0.550178
vt 0.679262 0.504445
vt 0.998535 0.595912
vt 0.998535 0.573045
vt 0.679262 0.595912
vt 0.998535 0.641645
vt 0.998535 0.618778
vt 0.679262 0.618778
vt 0.998535 0.664512
vt 0.679262 0.641645
vt 0.679262 0.573045
vt 0.998535 0.710245
vt 0.998535 0.687378
vt 0.679262 0.687378
vt 0.998535 0.755978
vt 0.998535 0.733111
vt 0.679262 0.733111
vt 0.998535 0.778845
vt 0.679262 0.755978
vt 0.679262 0.710245
vt 0.998535 0.824578
vt 0.998535 0.801711
vt 0.679262 0.801711
vt 0.892111 0.870311
vt 0.998535 0.870311
vt 0.998535 0.847445
vt 0.679262 0.824578
vt 0.679262 0.778845
vt 0.679262 0.664512
vt 0.785687 0.870311
vt 0.998535 0.435845
vt 0.679262 0.458712
vt 0.679262 0.847445
vt 0.679262 0.870311
vt 0.518161 0.438649
vt 0.677797 0.457565
vt 0.677797 0.407181
vt 0.571373 0.407181
vt 0.518161 0.507950
vt 0.677797 0.507950
vt 0.464949 0.407181
vt 0.518161 0.533142
vt 0.518161 0.558334
vt 0.677797 0.533142
vt 0.677797 0.583526
vt 0.677797 0.558334
vt 0.518161 0.583526
vt 0.677797 0.608719
vt 0.358525 0.533142
vt 0.358525 0.457565
vt 0.358525 0.507950
vt 0.358525 0.407181
vt 0.358525 0.583526
vt 0.518161 0.608719
vt 0.358525 0.608719
vt 0.358525 0.614721
vt 0.518161 0.614721
vt 0.358525 0.558334
vt 0.677797 0.614721
vt 0.677797 0.639914
vt 0.518161 0.639914
vt 0.518161 0.665106
vt 0.677797 0.665106
vt 0.677797 0.690298
vt 0.677797 0.715490
vt 0.518161 0.690298
vt 0.677797 0.765874
vt 0.518161 0.715490
vt 0.518161 0.784791
vt 0.677797 0.816259
vt 0.571373 0.816259
vt 0.358525 0.639914
vt 0.358525 0.665106
vt 0.358525 0.690298
vt 0.358525 0.715490
vt 0.518161 0.765874
vt 0.358525 0.765874
vt 0.464949 0.816259
vt 0.358525 0.816259
vt 0.375560 0.001042
vt 0.397357 0.029389
vt 0.360625 0.000000
vt 0.337585 0.000366
vt 0.314572 0.001467
vt 0.291604 0.003313
vt 0.394683 0.014147
vt 0.387165 0.005227
vt 0.396673 0.020878
vt 0.268733 0.005917
vt 0.391482 0.008996
vt 0.246812 0.349364
vt 0.245941 0.009305
vt 0.223285 0.013507
vt 0.224330 0.345230
vt 0.156495 0.031479
vt 0.136521 0.319712
vt 0.134842 0.039477
vt 0.157991 0.327553
vt 0.178501 0.024537
vt 0.095078 0.300557
vt 0.093135 0.059025
vt 0.113689 0.048613
vt 0.115498 0.310750
vt 0.202018 0.340258
vt 0.200803 0.018563
vt 0.039482 0.260832
vt 0.037472 0.099677
vt 0.054688 0.084343
vt 0.073375 0.070872
vt 0.056739 0.275795
vt 0.022456 0.116971
vt 0.011770 0.224718
vt 0.010367 0.136554
vt 0.003307 0.203544
vt 0.002485 0.158185
vt 0.024197 0.243840
vt 0.075391 0.288960
vt 0.179922 0.334398
vt 0.397357 0.329132
vt 0.396673 0.337643
vt 0.375561 0.357482
vt 0.394683 0.344375
vt 0.269428 0.352698
vt 0.387166 0.353295
vt 0.391483 0.349526
vt 0.360625 0.358525
vt 0.337771 0.358164
vt 0.292145 0.355263
vt 0.314935 0.357080
vt 0.000000 0.180998
vn 0.7780 0.0020 -0.6283
vn 0.7576 0.0019 -0.6527
vn 0.7781 0.0019 -0.6281
vn 0.7136 0.0019 -0.7005
vn 0.7362 0.0019 -0.6768
vn 0.7137 0.0018 -0.7005
vn 0.6896 0.0018 -0.7241
vn 0.6898 0.0018 -0.7240
vn 0.6359 0.0017 -0.7718
vn 0.6640 0.0018 -0.7477
vn 0.6359 0.0017 -0.7717
vn 0.5716 0.0016 -0.8205
vn 0.6051 0.0017 -0.7961
vn 0.5716 0.0016 -0.8206
vn 0.5334 0.0015 -0.8459
vn 0.5332 0.0015 -0.8460
vn 0.6053 0.0017 -0.7960
vn 0.6639 0.0018 -0.7478
vn 0.4391 0.0014 -0.8985
vn 0.4896 0.0015 -0.8719
vn 0.4389 0.0014 -0.8985
vn 0.3068 0.0011 -0.9518
vn 0.3791 0.0012 -0.9254
vn 0.2170 0.0009 -0.9762
vn 0.3791 0.0013 -0.9253
vn -0.0391 0.0004 -0.9992
vn 0.1047 0.0007 -0.9945
vn -0.4312 -0.0005 -0.9022
vn -0.2190 -0.0000 -0.9757
vn -0.4313 -0.0005 -0.9022
vn -0.6431 -0.0010 -0.7658
vn -0.2191 0.0000 -0.9757
vn 0.1046 0.0007 -0.9945
vn 0.4895 0.0015 -0.8720
vn 0.7781 0.0020 -0.6282
vn -0.9186 -0.0018 -0.3952
vn -0.8121 -0.0014 -0.5835
vn -0.9185 -0.0017 -0.3955
vn -0.9958 -0.0021 -0.0920
vn -0.9735 -0.0020 -0.2286
vn -0.9957 -0.0021 -0.0923
vn -0.9998 -0.0021 0.0182
vn -0.9734 -0.0019 -0.2291
vn -0.9832 -0.0022 0.1824
vn -0.9941 -0.0022 0.1080
vn -0.9832 -0.0022 0.1823
vn -0.9543 -0.0022 0.2988
vn -0.9694 -0.0022 0.2453
vn -0.9695 -0.0022 0.2451
vn -0.9381 -0.0022 0.3464
vn -0.9941 -0.0021 0.1081
vn -0.9045 -0.0021 0.4265
vn -0.9216 -0.0021 0.3882
vn -0.9216 -0.0021 0.3881
vn -0.8702 -0.0021 0.4927
vn -0.8876 -0.0021 0.4607
vn -0.8526 -0.0021 0.5226
vn -0.8702 -0.0021 0.4928
vn -0.9045 -0.0021 0.4264
vn -0.8163 -0.0020 0.5776
vn -0.8346 -0.0020 0.5509
vn -0.8346 -0.0020 0.5508
vn -0.7780 -0.0019 0.6282
vn -0.7780 -0.0020 0.6283
vn -0.7974 -0.0020 0.6034
vn -0.8162 -0.0020 0.5777
vn -0.8526 -0.0021 0.5225
vn -0.9381 -0.0021 0.3463
vn -0.6432 -0.0010 -0.7657
vn -0.8121 -0.0014 -0.5836
vn -0.7975 -0.0020 0.6033
vn -0.7780 -0.0020 0.6282
vn -0.7201 -0.0019 0.6939
vn -0.6578 -0.0016 0.7532
vn -0.7780 -0.0019 0.6283
vn -0.3105 -0.0011 0.9506
vn -0.7781 -0.0020 0.6281
vn -0.0266 -0.0005 0.9996
vn 0.2602 0.0001 0.9656
vn -0.0267 -0.0006 0.9996
vn 0.4819 0.0006 0.8762
vn 0.2602 0.0001 0.9655
vn 0.6281 0.0010 0.7781
vn -0.0267 -0.0005 0.9996
vn -0.6577 -0.0018 0.7533
vn -0.7778 -0.0020 0.6285
vn 0.6282 0.0010 0.7780
vn 0.6281 0.0009 0.7781
vn 0.6284 0.0009 0.7779
vn 0.6283 0.0009 0.7779
vn 0.6284 0.0011 0.7779
vn 0.7552 0.0013 0.6555
vn 0.7551 0.0013 0.6556
vn 0.8891 0.0017 0.4577
vn 0.8890 0.0017 0.4579
vn 0.9828 0.0020 0.1847
vn 0.9947 0.0027 -0.1032
vn 0.9829 0.0020 0.1844
vn 0.8749 0.0021 -0.4843
vn 0.9946 0.0022 -0.1035
vn 0.8298 0.0020 -0.5580
vn 0.7779 0.0020 -0.6284
vn 0.7780 0.0019 -0.6282
vn 0.8892 0.0017 0.4575
vn 0.9830 0.0020 0.1836
vn 0.9946 0.0022 -0.1038
vn 0.8748 0.0021 -0.4845
vn 0.8748 0.0021 -0.4844
vn 0.7780 0.0020 -0.6282
vn 0.7779 0.0019 -0.6284
vn 0.0021 -1.0000 -0.0005
vn 0.0021 -1.0000 -0.0004
vn 0.0022 -1.0000 -0.0005
vn 0.0020 -1.0000 -0.0004
vn 0.0022 -1.0000 -0.0006
vn 0.0021 -1.0000 -0.0006
vn 0.0022 -1.0000 -0.0004
vn 0.0026 -1.0000 -0.0007
vn 0.0022 -1.0000 -0.0003
vn 0.0022 -1.0000 -0.0009
vn 0.0022 -1.0000 -0.0010
s 1
f 1/1/1 2/2/2 3/3/3
f 4/4/4 5/5/5 6/6/6
f 7/7/7 4/4/4 8/8/8
f 5/5/5 2/2/2 9/9/5
f 10/10/9 11/11/10 12/12/11
f 13/13/12 14/14/13 15/15/14
f 16/16/15 13/13/12 17/17/16
f 14/14/13 10/10/9 18/18/17
f 11/11/10 7/7/7 19/19/18
f 20/20/19 21/21/20 22/22/21
f 23/23/22 24/24/23 25/25/22
f 26/26/24 23/23/22 27/27/24
f 24/24/23 20/20/19 28/28/25
f 29/29/26 30/30/27 31/31/26
f 32/32/28 33/33/29 34/34/30
f 34/34/30 35/35/31 32/32/28
f 33/33/29 29/29/26 36/36/32
f 30/30/27 26/26/24 37/37/33
f 21/21/20 16/16/15 38/38/34
f 39/39/2 1/1/1 40/40/35
f 40/40/35 41/41/1 39/39/2
f 2/2/2 1/1/1 39/39/2
f 42/42/36 43/43/37 44/44/38
f 45/45/39 46/46/40 47/47/41
f 48/48/42 45/45/39 49/49/42
f 46/46/40 42/42/36 50/50/43
f 51/51/44 52/52/45 53/53/46
f 54/54/47 55/55/48 56/56/49
f 57/57/50 54/54/47 58/58/47
f 55/55/48 51/51/44 56/56/49
f 52/52/45 48/48/42 59/59/51
f 60/60/52 61/61/53 62/62/54
f 63/63/55 64/64/56 65/65/56
f 66/66/57 63/63/55 67/67/58
f 64/64/56 60/60/52 68/68/59
f 69/69/60 70/70/61 71/71/62
f 72/72/63 73/73/64 74/74/65
f 74/74/65 69/69/60 75/75/66
f 70/70/61 66/66/57 76/76/67
f 61/61/53 57/57/50 77/77/68
f 74/74/65 78/78/64 72/72/63
f 43/43/37 79/79/69 80/80/70
f 78/78/64 81/81/71 82/82/72
f 78/78/64 74/74/65 81/81/71
f 83/83/73 84/84/74 85/85/75
f 86/86/64 83/83/73 85/85/75
f 87/87/76 88/88/76 84/84/74
f 89/89/77 83/83/73 86/86/64
f 90/90/78 91/91/79 92/92/80
f 92/92/80 88/88/76 90/90/78
f 93/93/81 94/94/82 95/95/81
f 96/96/83 93/93/81 95/95/81
f 90/90/78 87/87/76 97/97/84
f 83/83/73 98/98/85 99/99/76
f 100/100/86 83/83/73 89/89/77
f 98/98/85 83/83/73 100/100/86
f 95/95/81 91/91/79 101/101/81
f 102/102/87 95/95/81 101/101/81
f 103/103/88 104/104/89 105/105/90
f 91/91/79 90/90/78 106/106/82
f 102/102/87 105/105/90 107/107/91
f 108/108/92 107/107/91 105/105/90
f 109/109/93 110/110/94 111/111/95
f 109/109/93 105/105/90 104/104/89
f 112/112/96 111/111/95 110/110/94
f 113/113/97 112/112/96 114/114/98
f 115/115/99 113/113/97 116/116/100
f 115/115/99 117/117/101 118/118/102
f 118/118/102 117/117/101 119/119/103
f 110/110/94 109/109/93 120/120/93
f 121/121/104 122/122/105 114/114/98
f 122/122/105 123/123/106 116/116/100
f 117/117/101 124/124/107 125/125/108
f 115/115/99 124/124/107 117/117/101
f 119/119/103 117/117/101 126/126/109
f 126/126/109 117/117/101 127/127/110
f 124/124/107 116/116/100 123/123/106
f 117/117/101 125/125/108 127/127/110
f 128/128/111 129/129/112 130/130/113
f 129/129/112 131/131/114 130/130/113
f 132/132/111 131/131/114 129/129/112
f 129/129/112 133/133/115 132/132/111
f 134/134/113 128/128/111 135/135/116
f 128/128/111 134/134/113 136/136/117
f 128/128/111 136/136/117 129/129/112
f 133/133/115 129/129/112 137/137/111
f 135/135/116 138/138/118 134/134/113
f 139/139/113 140/140/113 137/137/111
f 141/141/113 140/140/113 142/142/113
f 143/143/113 144/144/113 145/145/113
f 146/146/113 143/143/113 147/147/113
f 148/148/111 149/149/113 150/150/113
f 151/151/113 150/150/113 145/145/113
f 152/152/113 153/153/113 141/141/113
f 154/154/111 155/155/113 156/156/113
f 156/156/113 157/157/111 158/158/113
f 159/159/113 160/160/117 161/161/113
f 161/161/113 162/162/113 163/163/119
f 155/155/113 164/164/113 159/159/113
f 149/149/113 165/165/111 157/157/111
f 166/166/113 147/147/113 153/153/113
f 167/167/111 137/137/111 129/129/112
f 167/167/111 168/168/111 169/169/116
f 168/168/111 170/170/112 169/169/116
f 140/140/113 139/139/113 142/142/113
f 171/171/111 139/139/113 137/137/111
f 172/172/117 170/170/112 173/173/120
f 141/141/113 142/142/113 152/152/113
f 167/167/111 169/169/116 174/174/116
f 167/167/111 174/174/116 175/175/115
f 171/171/111 167/167/111 176/176/117
f 176/176/117 167/167/111 177/177/112
f 167/167/111 175/175/115 177/177/112
f 169/169/116 170/170/112 172/172/117
f 164/164/113 155/155/113 154/154/111
f 159/159/113 164/164/113 160/160/117
f 178/178/121 163/163/119 162/162/113
f 162/162/113 161/161/113 160/160/117
f 154/154/111 156/156/113 158/158/113
f 143/143/113 146/146/113 144/144/113
f 144/144/113 151/151/113 145/145/113
f 158/158/113 157/157/111 165/165/111
f 165/165/111 149/149/113 148/148/111
f 151/151/113 148/148/111 150/150/113
f 146/146/113 147/147/113 166/166/113
f 153/153/113 152/152/113 166/166/113
f 167/167/111 171/171/111 137/137/111
f 5/5/5 9/9/5 6/6/6
f 4/4/4 6/6/6 8/8/8
f 2/2/2 39/39/2 9/9/5
f 11/11/10 19/19/18 12/12/11
f 14/14/13 18/18/17 15/15/14
f 13/13/12 15/15/14 17/17/16
f 10/10/9 12/12/11 18/18/17
f 7/7/7 8/8/8 19/19/18
f 21/21/20 38/38/34 22/22/21
f 24/24/23 28/28/25 25/25/22
f 23/23/22 25/25/22 27/27/24
f 20/20/19 22/22/21 28/28/25
f 30/30/27 37/37/33 31/31/26
f 33/33/29 36/36/32 34/34/30
f 35/35/31 79/79/69 32/32/28
f 29/29/26 31/31/26 36/36/32
f 26/26/24 27/27/24 37/37/33
f 16/16/15 17/17/16 38/38/34
f 43/43/37 80/80/70 44/44/38
f 46/46/40 50/50/43 47/47/41
f 45/45/39 47/47/41 49/49/42
f 42/42/36 44/44/38 50/50/43
f 52/52/45 59/59/51 53/53/46
f 54/54/47 56/56/49 58/58/47
f 57/57/50 58/58/47 77/77/68
f 51/51/44 53/53/46 56/56/49
f 48/48/42 49/49/42 59/59/51
f 60/60/52 62/62/54 68/68/59
f 63/63/55 65/65/56 67/67/58
f 66/66/57 67/67/58 76/76/67
f 64/64/56 68/68/59 65/65/56
f 69/69/60 71/71/62 75/75/66
f 74/74/65 75/75/66 81/81/71
f 70/70/61 76/76/67 71/71/62
f 61/61/53 77/77/68 62/62/54
f 79/79/69 35/35/31 80/80/70
f 87/87/76 84/84/74 83/83/73
f 91/91/79 94/94/82 92/92/80
f 88/88/76 87/87/76 90/90/78
f 94/94/82 91/91/79 95/95/81
f 96/96/83 95/95/81 102/102/87
f 87/87/76 99/99/76 97/97/84
f 83/83/73 99/99/76 87/87/76
f 91/91/79 106/106/82 101/101/81
f 102/102/87 101/101/81 103/103/88
f 103/103/88 105/105/90 102/102/87
f 90/90/78 97/97/84 106/106/82
f 102/102/87 107/107/91 96/96/83
f 108/108/92 105/105/90 109/109/93
f 109/109/93 111/111/95 108/108/92
f 109/109/93 104/104/89 120/120/93
f 112/112/96 110/110/94 114/114/98
f 113/113/97 114/114/98 116/116/100
f 115/115/99 116/116/100 124/124/107
f 110/110/94 120/120/93 121/121/104
f 121/121/104 114/114/98 110/110/94
f 122/122/105 116/116/100 114/114/98
f 124/124/107 123/123/106 125/125/108
