# Blender v2.80 (sub 75) OBJ File: 'scene.blend'
# www.blender.org
o shoe_center_b_heel_mesh14.001
v 13.637850 -14.562035 3.740440
v 13.617450 -14.416528 3.716420
v 13.637540 -14.416528 3.740510
v 13.575020 -14.416528 3.670260
v 13.596610 -14.416528 3.693000
v 13.575940 -14.853047 3.670051
v 13.552700 -14.416528 3.648271
v 13.553630 -14.853047 3.648050
v 13.597540 -14.853047 3.692790
v 13.505810 -14.416528 3.606630
v 13.529630 -14.416528 3.627030
v 13.506730 -14.853047 3.606421
v 13.455830 -14.416528 3.568640
v 13.481230 -14.416528 3.587151
v 13.456760 -14.853047 3.568430
v 13.429670 -14.416528 3.551280
v 13.430600 -14.853047 3.551070
v 13.482160 -14.853047 3.586940
v 13.530560 -14.853047 3.626821
v 13.374920 -14.416528 3.520600
v 13.402680 -14.416528 3.535191
v 13.375850 -14.853047 3.520391
v 13.316880 -14.416528 3.496950
v 13.346320 -14.416528 3.507740
v 13.317810 -14.853047 3.496740
v 13.286640 -14.416528 3.488680
v 13.287570 -14.853047 3.488470
v 13.347250 -14.853047 3.507530
v 13.224530 -14.416528 3.482450
v 13.255680 -14.416528 3.483561
v 13.225460 -14.853047 3.482240
v 13.163820 -14.416528 3.496540
v 13.193460 -14.416528 3.486401
v 13.164750 -14.853047 3.496330
v 13.138460 -14.853047 3.513210
v 13.194390 -14.853047 3.486190
v 13.256610 -14.853047 3.483350
v 13.403610 -14.853047 3.534980
v 13.618380 -14.853048 3.716210
v 13.638160 -14.707541 3.740370
v 13.638470 -14.853048 3.740300
v 13.101310 -14.416528 3.563271
v 13.116490 -14.416528 3.536201
v 13.102230 -14.853047 3.563060
v 13.086760 -14.416528 3.623490
v 13.091690 -14.416528 3.592780
v 13.087690 -14.853047 3.623281
v 13.085680 -14.416528 3.654560
v 13.086600 -14.853047 3.654350
v 13.092610 -14.853047 3.592570
v 13.092240 -14.416528 3.716320
v 13.087690 -14.416528 3.685560
v 13.093160 -14.853048 3.716110
v 13.107390 -14.416528 3.776590
v 13.098900 -14.416528 3.746660
v 13.099830 -14.853048 3.746450
v 13.117450 -14.416528 3.806020
v 13.108320 -14.853048 3.776370
v 13.088610 -14.853047 3.685350
v 13.141640 -14.416528 3.863501
v 13.128950 -14.416528 3.835100
v 13.129880 -14.853048 3.834890
v 13.170300 -14.416528 3.918720
v 13.155450 -14.416528 3.891380
v 13.156380 -14.853048 3.891171
v 13.186100 -14.416528 3.945520
v 13.171230 -14.853048 3.918510
v 13.142570 -14.853048 3.863290
v 13.220380 -14.416528 3.997450
v 13.202820 -14.416528 3.971770
v 13.203740 -14.853048 3.971560
v 13.258230 -14.562035 4.046990
v 13.257920 -14.416528 4.047060
v 13.238760 -14.416528 4.022560
v 13.221310 -14.853048 3.997240
v 13.187040 -14.853048 3.945311
v 13.118370 -14.853048 3.805810
v 13.258530 -14.707541 4.046920
v 13.137540 -14.416528 3.513420
v 13.117420 -14.853047 3.535990
v 13.239690 -14.853048 4.022350
v 13.258840 -14.853048 4.046850
v 13.267050 -14.634542 4.056890
v 13.271790 -14.416149 4.061990
v 13.257920 -14.416528 4.047060
v 13.258230 -14.562035 4.046990
v 13.286610 -14.634114 4.070590
v 13.286150 -14.415855 4.070700
v 13.258530 -14.707541 4.046920
v 13.294290 -14.634004 4.071940
v 13.302480 -14.633923 4.070920
v 13.293830 -14.415745 4.072041
v 13.310850 -14.415613 4.067380
v 13.302020 -14.415663 4.071031
v 13.311310 -14.633873 4.067270
v 13.320440 -14.415596 4.060830
v 13.294750 -14.852264 4.071830
v 13.272720 -14.852669 4.061780
v 13.287080 -14.852374 4.070490
v 13.258840 -14.853048 4.046850
v 13.311780 -14.852133 4.067170
v 13.320910 -14.633856 4.060720
v 13.321370 -14.852115 4.060620
v 13.638760 -14.852144 3.804320
v 13.638300 -14.633885 3.804430
v 13.302950 -14.852183 4.070820
v 13.637830 -14.415625 3.804530
v 13.646260 -14.415611 3.796530
v 13.646720 -14.633872 3.796420
v 13.652150 -14.633898 3.788560
v 13.651680 -14.415639 3.788660
v 13.654400 -14.415703 3.780870
v 13.654700 -14.415803 3.773080
v 13.654860 -14.633962 3.780770
v 13.649210 -14.416103 3.757210
v 13.655160 -14.634063 3.772970
v 13.645890 -14.634508 3.750960
v 13.637540 -14.416528 3.740510
v 13.637850 -14.562035 3.740440
v 13.647180 -14.852132 3.796320
v 13.652610 -14.852158 3.788450
v 13.655330 -14.852222 3.780660
v 13.655630 -14.852322 3.772870
v 13.649670 -14.634363 3.757111
v 13.650140 -14.852624 3.757000
v 13.638160 -14.707541 3.740370
v 13.638470 -14.853048 3.740300
v 13.650140 -14.852624 3.757000
v 13.638760 -14.852144 3.804320
v 13.638470 -14.853048 3.740300
v 13.618380 -14.853048 3.716210
v 13.597540 -14.853047 3.692790
v 13.575940 -14.853047 3.670051
v 13.652610 -14.852158 3.788450
v 13.655630 -14.852322 3.772870
v 13.647180 -14.852132 3.796320
v 13.553630 -14.853047 3.648050
v 13.655330 -14.852222 3.780660
v 13.171230 -14.853048 3.918510
v 13.530560 -14.853047 3.626821
v 13.506730 -14.853047 3.606421
v 13.156380 -14.853048 3.891171
v 13.430600 -14.853047 3.551070
v 13.108320 -14.853048 3.776370
v 13.403610 -14.853047 3.534980
v 13.118370 -14.853048 3.805810
v 13.456760 -14.853047 3.568430
v 13.093160 -14.853048 3.716110
v 13.347250 -14.853047 3.507530
v 13.375850 -14.853047 3.520391
v 13.099830 -14.853048 3.746450
v 13.142570 -14.853048 3.863290
v 13.482160 -14.853047 3.586940
v 13.087690 -14.853047 3.623281
v 13.256610 -14.853047 3.483350
v 13.287570 -14.853047 3.488470
v 13.317810 -14.853047 3.496740
v 13.086600 -14.853047 3.654350
v 13.225460 -14.853047 3.482240
v 13.102230 -14.853047 3.563060
v 13.194390 -14.853047 3.486190
v 13.117420 -14.853047 3.535990
v 13.164750 -14.853047 3.496330
v 13.092610 -14.853047 3.592570
v 13.088610 -14.853047 3.685350
v 13.129880 -14.853048 3.834890
v 13.321370 -14.852115 4.060620
v 13.311780 -14.852133 4.067170
v 13.272720 -14.852669 4.061780
v 13.302950 -14.852183 4.070820
v 13.187040 -14.853048 3.945311
v 13.287080 -14.852374 4.070490
v 13.294750 -14.852264 4.071830
v 13.258840 -14.853048 4.046850
v 13.239690 -14.853048 4.022350
v 13.203740 -14.853048 3.971560
v 13.221310 -14.853048 3.997240
v 13.138460 -14.853047 3.513210
vt 0.892111 0.000000
vt 0.998535 0.022939
vt 0.998535 0.000000
vt 0.998535 0.068818
vt 0.998535 0.045878
vt 0.679262 0.068818
vt 0.998535 0.091757
vt 0.679262 0.091757
vt 0.679262 0.045878
vt 0.998535 0.137635
vt 0.998535 0.114696
vt 0.679262 0.137635
vt 0.998535 0.183514
vt 0.998535 0.160575
vt 0.679262 0.183514
vt 0.998535 0.206453
vt 0.679262 0.206453
vt 0.679262 0.160575
vt 0.679262 0.114696
vt 0.998535 0.252331
vt 0.998535 0.229392
vt 0.679262 0.252331
vt 0.998535 0.298210
vt 0.998535 0.275271
vt 0.679262 0.298210
vt 0.998535 0.321149
vt 0.679262 0.321149
vt 0.679262 0.275271
vt 0.998535 0.367028
vt 0.998535 0.344088
vt 0.679262 0.367028
vt 0.998535 0.412906
vt 0.998535 0.389967
vt 0.679262 0.412906
vt 0.679262 0.435845
vt 0.679262 0.389967
vt 0.679262 0.344088
vt 0.679262 0.229392
vt 0.679262 0.022939
vt 0.785687 0.000000
vt 0.679262 0.000000
vt 0.998535 0.481578
vt 0.998535 0.458712
vt 0.679262 0.481578
vt 0.998535 0.527312
vt 0.998535 0.504445
vt 0.679262 0.527312
vt 0.998535 0.550178
vt 0.679262 0.550178
vt 0.679262 0.504445
vt 0.998535 0.595912
vt 0.998535 0.573045
vt 0.679262 0.595912
vt 0.998535 0.641645
vt 0.998535 0.618778
vt 0.679262 0.618778
vt 0.998535 0.664512
vt 0.679262 0.641645
vt 0.679262 0.573045
vt 0.998535 0.710245
vt 0.998535 0.687378
vt 0.679262 0.687378
vt 0.998535 0.755978
vt 0.998535 0.733111
vt 0.679262 0.733111
vt 0.998535 0.778845
vt 0.679262 0.755978
vt 0.679262 0.710245
vt 0.998535 0.824578
vt 0.998535 0.801711
vt 0.679262 0.801711
vt 0.892111 0.870311
vt 0.998535 0.870311
vt 0.998535 0.847445
vt 0.679262 0.824578
vt 0.679262 0.778845
vt 0.679262 0.664512
vt 0.785687 0.870311
vt 0.998535 0.435845
vt 0.679262 0.458712
vt 0.679262 0.847445
vt 0.679262 0.870311
vt 0.518161 0.438649
vt 0.677797 0.457565
vt 0.677797 0.407181
vt 0.571373 0.407181
vt 0.518161 0.507950
vt 0.677797 0.507950
vt 0.464949 0.407181
vt 0.518161 0.533142
vt 0.518161 0.558334
vt 0.677797 0.533142
vt 0.677797 0.583526
vt 0.677797 0.558334
vt 0.518161 0.583526
vt 0.677797 0.608719
vt 0.358525 0.533142
vt 0.358525 0.457565
vt 0.358525 0.507950
vt 0.358525 0.407181
vt 0.358525 0.583526
vt 0.518161 0.608719
vt 0.358525 0.608719
vt 0.358525 0.614721
vt 0.518161 0.614721
vt 0.358525 0.558334
vt 0.677797 0.614721
vt 0.677797 0.639914
vt 0.518161 0.639914
vt 0.518161 0.665106
vt 0.677797 0.665106
vt 0.677797 0.690298
vt 0.677797 0.715490
vt 0.518161 0.690298
vt 0.677797 0.765874
vt 0.518161 0.715490
vt 0.518161 0.784791
vt 0.677797 0.816259
vt 0.571373 0.816259
vt 0.358525 0.639914
vt 0.358525 0.665106
vt 0.358525 0.690298
vt 0.358525 0.715490
vt 0.518161 0.765874
vt 0.358525 0.765874
vt 0.464949 0.816259
vt 0.358525 0.816259
vt 0.375560 0.001042
vt 0.397357 0.029389
vt 0.360625 0.000000
vt 0.337585 0.000366
vt 0.314572 0.001467
vt 0.291604 0.003313
vt 0.394683 0.014147
vt 0.387165 0.005227
vt 0.396673 0.020878
vt 0.268733 0.005917
vt 0.391482 0.008996
vt 0.246812 0.349364
vt 0.245941 0.009305
vt 0.223285 0.013507
vt 0.224330 0.345230
vt 0.156495 0.031479
vt 0.136521 0.319712
vt 0.134842 0.039477
vt 0.157991 0.327553
vt 0.178501 0.024537
vt 0.095078 0.300557
vt 0.093135 0.059025
vt 0.113689 0.048613
vt 0.115498 0.310750
vt 0.202018 0.340258
vt 0.200803 0.018563
vt 0.039482 0.260832
vt 0.037472 0.099677
vt 0.054688 0.084343
vt 0.073375 0.070872
vt 0.056739 0.275795
vt 0.022456 0.116971
vt 0.011770 0.224718
vt 0.010367 0.136554
vt 0.003307 0.203544
vt 0.002485 0.158185
vt 0.024197 0.243840
vt 0.075391 0.288960
vt 0.179922 0.334398
vt 0.397357 0.329132
vt 0.396673 0.337643
vt 0.375561 0.357482
vt 0.394683 0.344375
vt 0.269428 0.352698
vt 0.387166 0.353295
vt 0.391483 0.349526
vt 0.360625 0.358525
vt 0.337771 0.358164
vt 0.292145 0.355263
vt 0.314935 0.357080
vt 0.000000 0.180998
vn 0.7780 0.0020 -0.6282
vn 0.7576 0.0019 -0.6527
vn 0.7780 0.0019 -0.6282
vn 0.7136 0.0019 -0.7005
vn 0.7362 0.0019 -0.6767
vn 0.7137 0.0018 -0.7005
vn 0.6897 0.0018 -0.7241
vn 0.6897 0.0018 -0.7240
vn 0.7362 0.0019 -0.6768
vn 0.6359 0.0017 -0.7718
vn 0.6640 0.0018 -0.7477
vn 0.6362 0.0017 -0.7715
vn 0.5716 0.0016 -0.8205
vn 0.6054 0.0017 -0.7959
vn 0.5716 0.0016 -0.8206
vn 0.5334 0.0015 -0.8459
vn 0.5332 0.0015 -0.8460
vn 0.6052 0.0017 -0.7960
vn 0.6639 0.0018 -0.7479
vn 0.4390 0.0014 -0.8985
vn 0.4895 0.0015 -0.8720
vn 0.3068 0.0011 -0.9518
vn 0.3792 0.0012 -0.9253
vn 0.2170 0.0009 -0.9762
vn 0.3791 0.0013 -0.9254
vn -0.0391 0.0004 -0.9992
vn 0.1047 0.0007 -0.9945
vn -0.4313 -0.0005 -0.9022
vn -0.2191 -0.0000 -0.9757
vn -0.4312 -0.0005 -0.9022
vn -0.6431 -0.0010 -0.7658
vn 0.1046 0.0007 -0.9945
vn 0.4896 0.0015 -0.8719
vn 0.7779 0.0020 -0.6283
vn 0.7781 0.0019 -0.6282
vn -0.9185 -0.0018 -0.3954
vn -0.8120 -0.0014 -0.5836
vn -0.9185 -0.0017 -0.3954
vn -0.9957 -0.0021 -0.0922
vn -0.9735 -0.0020 -0.2288
vn -0.9957 -0.0021 -0.0923
vn -0.9998 -0.0021 0.0182
vn -0.9735 -0.0019 -0.2289
vn -0.9832 -0.0022 0.1823
vn -0.9941 -0.0022 0.1081
vn -0.9543 -0.0022 0.2988
vn -0.9695 -0.0022 0.2451
vn -0.9695 -0.0022 0.2452
vn -0.9381 -0.0022 0.3463
vn -0.9543 -0.0022 0.2989
vn -0.9941 -0.0021 0.1081
vn -0.9045 -0.0021 0.4264
vn -0.9217 -0.0021 0.3879
vn -0.9216 -0.0021 0.3881
vn -0.8702 -0.0021 0.4927
vn -0.8876 -0.0021 0.4607
vn -0.8526 -0.0021 0.5226
vn -0.8701 -0.0021 0.4928
vn -0.8163 -0.0020 0.5776
vn -0.8346 -0.0020 0.5509
vn -0.8346 -0.0020 0.5508
vn -0.7780 -0.0020 0.6282
vn -0.7780 -0.0019 0.6282
vn -0.7974 -0.0020 0.6034
vn -0.8162 -0.0020 0.5777
vn -0.8526 -0.0021 0.5225
vn -0.7780 -0.0020 0.6283
vn -0.6432 -0.0010 -0.7657
vn -0.8121 -0.0014 -0.5835
vn -0.7975 -0.0020 0.6033
vn -0.7200 -0.0019 0.6939
vn -0.6578 -0.0017 0.7532
vn -0.7780 -0.0019 0.6283
vn -0.3105 -0.0011 0.9506
vn -0.0266 -0.0005 0.9996
vn 0.2601 0.0001 0.9656
vn 0.4820 0.0006 0.8762
vn 0.2602 0.0001 0.9656
vn 0.4819 0.0006 0.8762
vn 0.6283 0.0010 0.7780
vn -0.0261 -0.0005 0.9997
vn -0.6578 -0.0018 0.7532
vn 0.6282 0.0010 0.7780
vn 0.6283 0.0009 0.7780
vn 0.6282 0.0011 0.7780
vn 0.7550 0.0013 0.6557
vn 0.7551 0.0013 0.6557
vn 0.8891 0.0017 0.4576
vn 0.8892 0.0017 0.4576
vn 0.9829 0.0020 0.1844
vn 0.9946 0.0027 -0.1035
vn 0.8748 0.0021 -0.4845
vn 0.9946 0.0022 -0.1034
vn 0.8299 0.0020 -0.5580
vn 0.7551 0.0013 0.6556
vn 0.9829 0.0020 0.1842
vn 0.9946 0.0022 -0.1035
vn 0.8748 0.0021 -0.4844
vn 0.7779 0.0019 -0.6283
vn 0.7780 0.0019 -0.6283
vn 0.0021 -1.0000 -0.0005
vn 0.0022 -1.0000 -0.0005
vn 0.0020 -1.0000 -0.0005
vn 0.0022 -1.0000 -0.0006
vn 0.0025 -1.0000 -0.0004
vn 0.0021 -1.0000 -0.0003
vn 0.0021 -1.0000 -0.0009
vn 0.0022 -1.0000 -0.0004
vn 0.0021 -1.0000 -0.0018
s 1
f 1/1/1 2/2/2 3/3/3
f 4/4/4 5/5/5 6/6/6
f 7/7/7 4/4/4 8/8/8
f 5/5/5 2/2/2 9/9/9
f 10/10/10 11/11/11 12/12/12
f 13/13/13 14/14/14 15/15/15
f 16/16/16 13/13/13 17/17/17
f 14/14/14 10/10/10 18/18/18
f 11/11/11 7/7/7 19/19/19
f 20/20/20 21/21/21 22/22/20
f 23/23/22 24/24/23 25/25/22
f 26/26/24 23/23/22 27/27/24
f 24/24/23 20/20/20 28/28/25
f 29/29/26 30/30/27 31/31/26
f 32/32/28 33/33/29 34/34/30
f 34/34/30 35/35/31 32/32/28
f 33/33/29 29/29/26 36/36/29
f 30/30/27 26/26/24 37/37/32
f 21/21/21 16/16/16 38/38/33
f 39/39/2 1/1/1 40/40/34
f 40/40/34 41/41/35 39/39/2
f 2/2/2 1/1/1 39/39/2
f 42/42/36 43/43/37 44/44/38
f 45/45/39 46/46/40 47/47/41
f 48/48/42 45/45/39 49/49/42
f 46/46/40 42/42/36 50/50/43
f 51/51/44 52/52/45 53/53/44
f 54/54/46 55/55/47 56/56/48
f 57/57/49 54/54/46 58/58/50
f 55/55/47 51/51/44 56/56/48
f 52/52/45 48/48/42 59/59/51
f 60/60/52 61/61/53 62/62/54
f 63/63/55 64/64/56 65/65/56
f 66/66/57 63/63/55 67/67/58
f 64/64/56 60/60/52 68/68/52
f 69/69/59 70/70/60 71/71/61
f 72/72/62 73/73/63 74/74/64
f 74/74/64 69/69/59 75/75/65
f 70/70/60 66/66/57 76/76/66
f 61/61/53 57/57/49 77/77/49
f 74/74/64 78/78/67 72/72/62
f 43/43/37 79/79/68 80/80/69
f 78/78/67 81/81/70 82/82/67
f 78/78/67 74/74/64 81/81/70
f 83/83/71 84/84/72 85/85/67
f 86/86/73 83/83/71 85/85/67
f 87/87/74 88/88/74 84/84/72
f 89/89/62 83/83/71 86/86/73
f 90/90/75 91/91/76 92/92/75
f 92/92/75 88/88/74 90/90/75
f 93/93/77 94/94/78 95/95/79
f 96/96/80 93/93/77 95/95/79
f 90/90/75 87/87/74 97/97/81
f 83/83/71 98/98/82 99/99/74
f 100/100/67 83/83/71 89/89/62
f 98/98/82 83/83/71 100/100/67
f 95/95/79 91/91/76 101/101/77
f 102/102/83 95/95/79 101/101/77
f 103/103/84 104/104/80 105/105/80
f 91/91/76 90/90/75 106/106/78
f 102/102/83 105/105/80 107/107/85
f 108/108/86 107/107/85 105/105/80
f 109/109/87 110/110/88 111/111/89
f 109/109/87 105/105/80 104/104/80
f 112/112/90 111/111/89 110/110/88
f 113/113/91 112/112/90 114/114/90
f 115/115/92 113/113/91 116/116/93
f 115/115/92 117/117/94 118/118/1
f 118/118/1 117/117/94 119/119/34
f 110/110/88 109/109/87 120/120/95
f 121/121/89 122/122/96 114/114/90
f 122/122/96 123/123/97 116/116/93
f 117/117/94 124/124/92 125/125/98
f 115/115/92 124/124/92 117/117/94
f 119/119/34 117/117/94 126/126/99
f 126/126/99 117/117/94 127/127/100
f 124/124/92 116/116/93 123/123/97
f 117/117/94 125/125/98 127/127/100
f 128/128/101 129/129/101 130/130/102
f 129/129/101 131/131/103 130/130/102
f 132/132/101 131/131/103 129/129/101
f 129/129/101 133/133/104 132/132/101
f 134/134/102 128/128/101 135/135/101
f 128/128/101 134/134/102 136/136/102
f 128/128/101 136/136/102 129/129/101
f 133/133/104 129/129/101 137/137/101
f 135/135/101 138/138/105 134/134/102
f 139/139/102 140/140/102 137/137/101
f 141/141/102 140/140/102 142/142/102
f 143/143/102 144/144/102 145/145/102
f 146/146/102 143/143/102 147/147/102
f 148/148/101 149/149/102 150/150/102
f 151/151/102 150/150/102 145/145/102
f 152/152/102 153/153/102 141/141/102
f 154/154/101 155/155/102 156/156/102
f 156/156/102 157/157/101 158/158/102
f 159/159/102 160/160/102 161/161/102
f 161/161/102 162/162/102 163/163/102
f 155/155/102 164/164/102 159/159/102
f 149/149/102 165/165/101 157/157/101
f 166/166/102 147/147/102 153/153/102
f 167/167/101 137/137/101 129/129/101
f 167/167/101 168/168/106 169/169/101
f 168/168/106 170/170/107 169/169/101
f 140/140/102 139/139/102 142/142/102
f 171/171/101 139/139/102 137/137/101
f 172/172/108 170/170/107 173/173/109
f 141/141/102 142/142/102 152/152/102
f 167/167/101 169/169/101 174/174/101
f 167/167/101 174/174/101 175/175/104
f 171/171/101 167/167/101 176/176/104
f 176/176/104 167/167/101 177/177/101
f 167/167/101 175/175/104 177/177/101
f 169/169/101 170/170/107 172/172/108
f 164/164/102 155/155/102 154/154/101
f 159/159/102 164/164/102 160/160/102
f 178/178/102 163/163/102 162/162/102
f 162/162/102 161/161/102 160/160/102
f 154/154/101 156/156/102 158/158/102
f 143/143/102 146/146/102 144/144/102
f 144/144/102 151/151/102 145/145/102
f 158/158/102 157/157/101 165/165/101
f 165/165/101 149/149/102 148/148/101
f 151/151/102 148/148/101 150/150/102
f 146/146/102 147/147/102 166/166/102
f 153/153/102 152/152/102 166/166/102
f 167/167/101 171/171/101 137/137/101
f 5/5/5 9/9/9 6/6/6
f 4/4/4 6/6/6 8/8/8
f 2/2/2 39/39/2 9/9/9
f 11/11/11 19/19/19 12/12/12
f 14/14/14 18/18/18 15/15/15
f 13/13/13 15/15/15 17/17/17
f 10/10/10 12/12/12 18/18/18
f 7/7/7 8/8/8 19/19/19
f 21/21/21 38/38/33 22/22/20
f 24/24/23 28/28/25 25/25/22
f 23/23/22 25/25/22 27/27/24
f 20/20/20 22/22/20 28/28/25
f 30/30/27 37/37/32 31/31/26
f 33/33/29 36/36/29 34/34/30
f 35/35/31 79/79/68 32/32/28
f 29/29/26 31/31/26 36/36/29
f 26/26/24 27/27/24 37/37/32
f 16/16/16 17/17/17 38/38/33
f 43/43/37 80/80/69 44/44/38
f 46/46/40 50/50/43 47/47/41
f 45/45/39 47/47/41 49/49/42
f 42/42/36 44/44/38 50/50/43
f 52/52/45 59/59/51 53/53/44
f 54/54/46 56/56/48 58/58/50
f 57/57/49 58/58/50 77/77/49
f 51/51/44 53/53/44 56/56/48
f 48/48/42 49/49/42 59/59/51
f 60/60/52 62/62/54 68/68/52
f 63/63/55 65/65/56 67/67/58
f 66/66/57 67/67/58 76/76/66
f 64/64/56 68/68/52 65/65/56
f 69/69/59 71/71/61 75/75/65
f 74/74/64 75/75/65 81/81/70
f 70/70/60 76/76/66 71/71/61
f 61/61/53 77/77/49 62/62/54
f 79/79/68 35/35/31 80/80/69
f 87/87/74 84/84/72 83/83/71
f 91/91/76 94/94/78 92/92/75
f 88/88/74 87/87/74 90/90/75
f 94/94/78 91/91/76 95/95/79
f 96/96/80 95/95/79 102/102/83
f 87/87/74 99/99/74 97/97/81
f 83/83/71 99/99/74 87/87/74
f 91/91/76 106/106/78 101/101/77
f 102/102/83 101/101/77 103/103/84
f 103/103/84 105/105/80 102/102/83
f 90/90/75 97/97/81 106/106/78
f 102/102/83 107/107/85 96/96/80
f 108/108/86 105/105/80 109/109/87
f 109/109/87 111/111/89 108/108/86
f 109/109/87 104/104/80 120/120/95
f 112/112/90 110/110/88 114/114/90
f 113/113/91 114/114/90 116/116/93
f 115/115/92 116/116/93 124/124/92
f 110/110/88 120/120/95 121/121/89
f 121/121/89 114/114/90 110/110/88
f 122/122/96 116/116/93 114/114/90
f 124/124/92 123/123/97 125/125/98
