# Blender v2.80 (sub 75) OBJ File: 'scene.blend'
# www.blender.org
o window_border_1_Cube.001
v -53.300056 -48.447311 43.979965
v -53.300056 54.278824 43.979965
v -66.505257 54.278824 42.238716
v -66.505257 -48.447311 42.238716
v -66.505257 54.278824 43.979965
v -66.505257 -48.447311 43.979965
v -53.300056 54.278824 42.238716
v -53.300056 -48.447311 42.238716
v -62.745247 -48.447311 45.317184
v -57.060059 -48.447311 45.317184
v -62.745247 54.278824 45.317184
v -57.060059 54.278824 45.317184
vt 0.625000 0.250000
vt 0.625000 0.250000
vt 0.625000 0.500000
vt 0.375000 0.250000
vt 0.375000 0.500000
vt 0.375000 0.250000
vt 0.375000 0.250000
vt 0.375000 0.500000
vt 0.625000 0.500000
vt 0.375000 0.500000
vt 0.625000 0.250000
vt 0.625000 0.500000
vn 0.0000 -1.0000 0.0000
vn 0.0000 0.0000 -1.0000
vn -0.3351 0.0000 0.9422
vn 0.0000 1.0000 0.0000
vn -1.0000 0.0000 0.0000
vn 1.0000 0.0000 0.0000
vn 0.0000 0.0000 1.0000
vn 0.3351 0.0000 0.9422
s off
f 6/1/1 4/2/1 8/3/1
f 4/2/2 3/4/2 7/5/2
f 11/6/3 5/7/3 6/1/3
f 2/8/4 7/5/4 3/4/4
f 5/7/5 3/4/5 4/2/5
f 1/9/6 8/3/6 7/5/6
f 12/10/7 11/6/7 9/11/7
f 10/12/8 1/9/8 2/8/8
f 2/8/4 5/7/4 11/6/4
f 9/11/1 6/1/1 1/9/1
f 6/1/1 8/3/1 1/9/1
f 4/2/2 7/5/2 8/3/2
f 11/6/3 6/1/3 9/11/3
f 2/8/4 3/4/4 5/7/4
f 5/7/5 4/2/5 6/1/5
f 1/9/6 7/5/6 2/8/6
f 12/10/7 9/11/7 10/12/7
f 10/12/8 2/8/8 12/10/8
f 2/8/4 11/6/4 12/10/4
f 9/11/1 1/9/1 10/12/1
o window_border_2_Cube.002
v 92.760231 -48.447342 43.979965
v 92.760231 54.278854 43.979965
v 79.555031 54.278854 42.238716
v 79.555031 -48.447342 42.238716
v 79.555031 54.278854 43.979965
v 79.555031 -48.447342 43.979965
v 92.760231 54.278854 42.238716
v 92.760231 -48.447342 42.238716
v 83.315041 -48.447342 45.317184
v 89.000229 -48.447342 45.317184
v 83.315041 54.278854 45.317184
v 89.000229 54.278854 45.317184
vt 0.625000 0.250000
vt 0.625000 0.250000
vt 0.625000 0.500000
vt 0.375000 0.250000
vt 0.375000 0.500000
vt 0.375000 0.250000
vt 0.375000 0.250000
vt 0.375000 0.500000
vt 0.625000 0.500000
vt 0.375000 0.500000
vt 0.625000 0.250000
vt 0.625000 0.500000
vn 0.0000 -1.0000 0.0000
vn 0.0000 0.0000 -1.0000
vn -0.3351 0.0000 0.9422
vn 0.0000 1.0000 0.0000
vn -1.0000 0.0000 0.0000
vn 1.0000 0.0000 0.0000
vn 0.0000 0.0000 1.0000
vn 0.3351 0.0000 0.9422
s off
f 18/13/9 16/14/9 20/15/9
f 16/14/10 15/16/10 19/17/10
f 23/18/11 17/19/11 18/13/11
f 14/20/12 19/17/12 15/16/12
f 17/19/13 15/16/13 16/14/13
f 13/21/14 20/15/14 19/17/14
f 24/22/15 23/18/15 21/23/15
f 22/24/16 13/21/16 14/20/16
f 14/20/12 17/19/12 23/18/12
f 21/23/9 18/13/9 13/21/9
f 18/13/9 20/15/9 13/21/9
f 16/14/10 19/17/10 20/15/10
f 23/18/11 18/13/11 21/23/11
f 14/20/12 15/16/12 17/19/12
f 17/19/13 16/14/13 18/13/13
f 13/21/14 19/17/14 14/20/14
f 24/22/15 21/23/15 22/24/15
f 22/24/16 14/20/16 24/22/16
f 14/20/12 23/18/12 24/22/12
f 21/23/9 13/21/9 22/24/9
o window_border_3_Cube.003
v -83.970139 -54.127075 43.979965
v 100.293762 -54.127060 43.979965
v 100.293762 -40.921860 42.238716
v -83.970139 -40.921875 42.238716
v 100.293762 -40.921860 43.979965
v -83.970139 -40.921875 43.979965
v 100.293762 -54.127060 42.238716
v -83.970139 -54.127075 42.238716
v -83.970139 -44.681881 45.317184
v -83.970139 -50.367073 45.317184
v 100.293762 -44.681870 45.317184
v 100.293762 -50.367058 45.317184
vt 0.625000 0.250000
vt 0.625000 0.250000
vt 0.625000 0.500000
vt 0.375000 0.250000
vt 0.375000 0.500000
vt 0.375000 0.250000
vt 0.375000 0.250000
vt 0.375000 0.500000
vt 0.625000 0.500000
vt 0.375000 0.500000
vt 0.625000 0.250000
vt 0.625000 0.500000
vn -1.0000 0.0000 0.0000
vn -0.0000 0.0000 -1.0000
vn -0.0000 0.3351 0.9422
vn 1.0000 0.0000 0.0000
vn -0.0000 1.0000 0.0000
vn 0.0000 -1.0000 0.0000
vn -0.0000 0.0000 1.0000
vn 0.0000 -0.3351 0.9422
s off
f 30/25/17 28/26/17 32/27/17
f 28/26/18 27/28/18 31/29/18
f 35/30/19 29/31/19 30/25/19
f 26/32/20 31/29/20 27/28/20
f 29/31/21 27/28/21 28/26/21
f 25/33/22 32/27/22 31/29/22
f 36/34/23 35/30/23 33/35/23
f 34/36/24 25/33/24 26/32/24
f 26/32/20 29/31/20 35/30/20
f 33/35/17 30/25/17 25/33/17
f 30/25/17 32/27/17 25/33/17
f 28/26/18 31/29/18 32/27/18
f 35/30/19 30/25/19 33/35/19
f 26/32/20 27/28/20 29/31/20
f 29/31/21 28/26/21 30/25/21
f 25/33/22 31/29/22 26/32/22
f 36/34/23 33/35/23 34/36/23
f 34/36/24 26/32/24 36/34/24
f 26/32/20 35/30/20 36/34/20
f 33/35/17 25/33/17 34/36/17
