# Blender v2.80 (sub 75) OBJ File: 'pool.blend'
# www.blender.org
o chair_2_fabric_BezierCurve.004
v -5.094368 1.511455 3.097559
v -4.938136 1.511454 3.996150
v -5.049307 1.515586 3.089725
v -4.893075 1.515586 3.988316
v -5.008748 1.525980 3.082673
v -4.852516 1.525980 3.981264
v -4.973225 1.541146 3.076497
v -4.816994 1.541146 3.975088
v -4.943274 1.559594 3.071290
v -4.787043 1.559593 3.969881
v -4.919431 1.579831 3.067144
v -4.763201 1.579830 3.965735
v -4.902231 1.600368 3.064154
v -4.746001 1.600367 3.962745
v -4.892210 1.619714 3.062412
v -4.735981 1.619712 3.961003
v -4.889903 1.636379 3.062011
v -4.733674 1.636373 3.960602
v -4.895847 1.648870 3.063044
v -4.739616 1.648862 3.961635
v -4.910576 1.655697 3.065605
v -4.754343 1.655687 3.964195
v -4.934626 1.655367 3.069787
v -4.778390 1.655358 3.968377
v -4.968532 1.646393 3.075681
v -4.812295 1.646383 3.974271
v -5.140785 1.593768 3.105630
v -4.984549 1.593758 4.004220
v -5.309706 1.560077 3.135000
v -5.153471 1.560067 4.033590
v -5.476822 1.546558 3.164056
v -5.320588 1.546548 4.062645
v -5.643656 1.554451 3.193062
v -5.487423 1.554441 4.091653
v -5.811735 1.584996 3.222285
v -5.655503 1.584986 4.120876
v -5.982583 1.639430 3.251990
v -5.826352 1.639420 4.150580
v -6.157725 1.718993 3.282441
v -6.001495 1.718984 4.181032
v -6.338687 1.824926 3.313904
v -6.182458 1.824917 4.212495
v -6.526993 1.958466 3.346644
v -6.370765 1.958458 4.245235
v -6.724170 2.120853 3.380926
v -6.567942 2.120845 4.279517
v -6.931741 2.313327 3.417015
v -6.775514 2.313319 4.315607
v -7.151233 2.537127 3.455177
v -6.995005 2.537119 4.353768
v -7.169251 2.551869 3.458310
v -7.013021 2.551860 4.356901
v -7.184962 2.556856 3.461041
v -7.028729 2.556846 4.359632
v -7.197967 2.553861 3.463302
v -7.041728 2.553853 4.361892
v -7.207863 2.544660 3.465023
v -7.051621 2.544654 4.363612
v -7.214251 2.531027 3.466134
v -7.058007 2.531024 4.364722
v -7.216731 2.514737 3.466565
v -7.060487 2.514737 4.365154
v -7.214904 2.497565 3.466247
v -7.058661 2.497568 4.364836
v -7.208370 2.481285 3.465111
v -7.052128 2.481291 4.363700
v -7.196729 2.467672 3.463087
v -7.040490 2.467680 4.361677
v -7.179581 2.458501 3.460106
v -7.023345 2.458510 4.358696
v -7.156528 2.455546 3.456098
v -7.000295 2.455556 4.354688
v -7.127168 2.460581 3.450993
v -6.970938 2.460591 4.349584
vt -0.534013 -1.835525
vt 0.825254 -1.767092
vt 0.825254 -1.835530
vt -0.534013 -1.767085
vt 0.825255 -1.703814
vt -0.534012 -1.645511
vt 0.825255 -1.645519
vt 0.825256 -1.592525
vt -0.534012 -1.592515
vt 0.825256 -1.545511
vt -0.534011 -1.545497
vt 0.825256 -1.505341
vt -0.534010 -1.472750
vt 0.825257 -1.472770
vt 0.825257 -1.447694
vt -0.534010 -1.447671
vt 0.825204 -1.423969
vt -0.534063 -1.423946
vt 0.825205 -1.399480
vt -0.534062 -1.399453
vt 0.825206 -1.363101
vt -0.534062 -1.363070
vt 0.825207 -1.310099
vt -0.534054 -1.037959
vt 0.825213 -1.037990
vt 0.825218 -0.777579
vt -0.534049 -0.777551
vt 0.825223 -0.523986
vt -0.534044 -0.523960
vt 0.825228 -0.271345
vt -0.534040 -0.271322
vt 0.825232 -0.013054
vt -0.534036 -0.013033
vt 0.825236 0.257818
vt -0.534032 0.257837
vt 0.825239 0.548076
vt -0.534028 0.548093
vt 0.825243 0.864075
vt -0.534025 0.864090
vt 0.825247 1.211559
vt -0.534021 1.211572
vt 0.825250 1.595654
vt -0.534018 1.595666
vt 0.825253 2.020940
vt -0.534015 2.020952
vt 0.825257 2.491555
vt -0.534011 2.491566
vt 0.825257 2.526559
vt -0.534011 2.526576
vt 0.825257 2.551454
vt -0.534011 2.551478
vt 0.825196 2.575179
vt -0.534132 2.598929
vt 0.825136 2.598904
vt 0.825115 2.622630
vt -0.534153 2.622654
vt 0.825116 2.647190
vt -0.534152 2.647223
vt 0.825116 2.672926
vt -0.534151 2.672966
vt 0.825117 2.699121
vt -0.534151 2.699163
vt 0.825118 2.725980
vt -0.534150 2.726025
vt 0.825119 2.755294
vt -0.534149 2.755342
vt 0.825121 2.790439
vt -0.534148 2.790489
vt 0.825122 2.835476
vt -0.534012 -1.703806
vt -0.534011 -1.505323
vt -0.534060 -1.310068
vt -0.534072 2.575204
vt -0.534146 2.835530
vn 0.0886 -0.9959 -0.0154
vn 0.1654 -0.9858 -0.0287
vn 0.3125 -0.9484 -0.0543
vn 0.4478 -0.8907 -0.0778
vn 0.4477 -0.8907 -0.0778
vn 0.5732 -0.8133 -0.0996
vn 0.6938 -0.7100 -0.1206
vn 0.8163 -0.5599 -0.1419
vn 0.9377 -0.3068 -0.1630
vn 0.9734 0.1545 -0.1692
vn 0.9734 0.1546 -0.1692
vn 0.6891 0.7147 -0.1198
vn 0.6890 0.7147 -0.1198
vn 0.2029 0.9785 -0.0352
vn -0.1319 0.9910 0.0229
vn -0.2663 0.9628 0.0463
vn -0.2372 0.9705 0.0412
vn -0.1343 0.9906 0.0233
vn -0.0162 0.9998 0.0028
vn 0.1100 0.9937 -0.0191
vn 0.2348 0.9712 -0.0408
vn 0.3493 0.9350 -0.0607
vn 0.4479 0.8907 -0.0779
vn 0.5287 0.8438 -0.0919
vn 0.5929 0.7986 -0.1031
vn 0.6429 0.7577 -0.1118
vn 0.6815 0.7221 -0.1185
vn 0.6592 0.7431 -0.1146
vn 0.6593 0.7431 -0.1146
vn 0.4643 0.8820 -0.0807
vn 0.0394 0.9992 -0.0068
vn -0.4570 0.8859 0.0795
vn -0.7922 0.5944 0.1377
vn -0.9416 0.2942 0.1637
vn -0.9850 0.0229 0.1712
vn -0.9850 0.0228 0.1712
vn -0.9553 -0.2446 0.1661
vn -0.9552 -0.2447 0.1661
vn -0.8395 -0.5234 0.1460
vn -0.8395 -0.5234 0.1459
vn -0.6122 -0.7835 0.1064
vn -0.2961 -0.9537 0.0515
vn 0.0206 -0.9998 -0.0035
vn 0.1641 -0.9860 -0.0285
vn 0.3124 -0.9484 -0.0543
vn -0.4570 0.8859 0.0794
s 1
f 1/1/1 4/2/2 2/3/1
f 3/4/2 6/5/3 4/2/2
f 6/5/3 7/6/4 8/7/5
f 7/6/4 10/8/6 8/7/5
f 9/9/6 12/10/7 10/8/6
f 11/11/7 14/12/8 12/10/7
f 14/12/8 15/13/9 16/14/9
f 15/13/9 18/15/10 16/14/9
f 17/16/11 20/17/12 18/15/10
f 19/18/13 22/19/14 20/17/12
f 21/20/14 24/21/15 22/19/14
f 23/22/15 26/23/16 24/21/15
f 26/23/16 27/24/17 28/25/17
f 27/24/17 30/26/18 28/25/17
f 29/27/18 32/28/19 30/26/18
f 31/29/19 34/30/20 32/28/19
f 33/31/20 36/32/21 34/30/20
f 35/33/21 38/34/22 36/32/21
f 37/35/22 40/36/23 38/34/22
f 39/37/23 42/38/24 40/36/23
f 41/39/24 44/40/25 42/38/24
f 43/41/25 46/42/26 44/40/25
f 45/43/26 48/44/27 46/42/26
f 47/45/27 50/46/28 48/44/27
f 49/47/29 52/48/30 50/46/28
f 51/49/30 54/50/31 52/48/30
f 53/51/31 56/52/32 54/50/31
f 56/52/32 57/53/33 58/54/33
f 57/53/33 60/55/34 58/54/33
f 59/56/34 62/57/35 60/55/34
f 61/58/36 64/59/37 62/57/35
f 63/60/38 66/61/39 64/59/37
f 65/62/40 68/63/41 66/61/39
f 67/64/41 70/65/42 68/63/41
f 69/66/42 72/67/43 70/65/42
f 71/68/43 74/69/44 72/67/43
f 1/1/1 3/4/2 4/2/2
f 3/4/2 5/70/45 6/5/3
f 6/5/3 5/70/45 7/6/4
f 7/6/4 9/9/6 10/8/6
f 9/9/6 11/11/7 12/10/7
f 11/11/7 13/71/8 14/12/8
f 14/12/8 13/71/8 15/13/9
f 15/13/9 17/16/11 18/15/10
f 17/16/11 19/18/13 20/17/12
f 19/18/13 21/20/14 22/19/14
f 21/20/14 23/22/15 24/21/15
f 23/22/15 25/72/16 26/23/16
f 26/23/16 25/72/16 27/24/17
f 27/24/17 29/27/18 30/26/18
f 29/27/18 31/29/19 32/28/19
f 31/29/19 33/31/20 34/30/20
f 33/31/20 35/33/21 36/32/21
f 35/33/21 37/35/22 38/34/22
f 37/35/22 39/37/23 40/36/23
f 39/37/23 41/39/24 42/38/24
f 41/39/24 43/41/25 44/40/25
f 43/41/25 45/43/26 46/42/26
f 45/43/26 47/45/27 48/44/27
f 47/45/27 49/47/29 50/46/28
f 49/47/29 51/49/30 52/48/30
f 51/49/30 53/51/31 54/50/31
f 53/51/31 55/73/46 56/52/32
f 56/52/32 55/73/46 57/53/33
f 57/53/33 59/56/34 60/55/34
f 59/56/34 61/58/36 62/57/35
f 61/58/36 63/60/38 64/59/37
f 63/60/38 65/62/40 66/61/39
f 65/62/40 67/64/41 68/63/41
f 67/64/41 69/66/42 70/65/42
f 69/66/42 71/68/43 72/67/43
f 71/68/43 73/74/44 74/69/44
o chair_1_fabric.001_BezierCurve.000
v -1.327080 1.511455 -6.615289
v -2.140856 1.511454 -6.203412
v -1.306427 1.515586 -6.574481
v -2.120202 1.515586 -6.162604
v -1.287836 1.525980 -6.537750
v -2.101612 1.525980 -6.125874
v -1.271554 1.541146 -6.505580
v -2.085330 1.541146 -6.093704
v -1.257825 1.559594 -6.478456
v -2.071602 1.559593 -6.066580
v -1.246897 1.579831 -6.456864
v -2.060673 1.579830 -6.044988
v -1.239013 1.600368 -6.441288
v -2.052790 1.600367 -6.029412
v -1.234420 1.619714 -6.432212
v -2.048197 1.619712 -6.020337
v -1.233363 1.636379 -6.430123
v -2.047140 1.636373 -6.018249
v -1.236087 1.648870 -6.435506
v -2.049863 1.648862 -6.023630
v -1.242838 1.655696 -6.448845
v -2.056613 1.655687 -6.036966
v -1.253862 1.655367 -6.470624
v -2.067636 1.655358 -6.058744
v -1.269403 1.646393 -6.501330
v -2.083176 1.646383 -6.089449
v -1.348357 1.593768 -6.657324
v -2.162131 1.593758 -6.245443
v -1.425784 1.560077 -6.810302
v -2.239558 1.560067 -6.398422
v -1.502383 1.546558 -6.961644
v -2.316158 1.546548 -6.549765
v -1.578853 1.554451 -7.112731
v -2.392629 1.554441 -6.700853
v -1.655894 1.584996 -7.264946
v -2.469670 1.584986 -6.853069
v -1.734204 1.639430 -7.419667
v -2.547980 1.639420 -7.007792
v -1.814482 1.718993 -7.578279
v -2.628259 1.718984 -7.166404
v -1.897428 1.824926 -7.742160
v -2.711205 1.824917 -7.330286
v -1.983740 1.958466 -7.912693
v -2.797518 1.958458 -7.500820
v -2.074118 2.120853 -8.091258
v -2.887896 2.120845 -7.679386
v -2.169260 2.313327 -8.279238
v -2.983038 2.313319 -7.867365
v -2.269866 2.537127 -8.478012
v -3.083644 2.537119 -8.066139
v -2.278125 2.551869 -8.494329
v -3.091902 2.551860 -8.082455
v -2.285327 2.556856 -8.508558
v -3.099102 2.556846 -8.096680
v -2.291287 2.553861 -8.520335
v -3.105061 2.553853 -8.108452
v -2.295824 2.544660 -8.529297
v -3.109595 2.544654 -8.117412
v -2.298751 2.531027 -8.535082
v -3.112522 2.531024 -8.123195
v -2.299888 2.514737 -8.537328
v -3.113659 2.514737 -8.125441
v -2.299051 2.497565 -8.535673
v -3.112822 2.497568 -8.123787
v -2.296056 2.481285 -8.529757
v -3.109827 2.481291 -8.117870
v -2.290720 2.467672 -8.519214
v -3.104493 2.467680 -8.107330
v -2.282860 2.458501 -8.503685
v -3.096634 2.458511 -8.091805
v -2.272293 2.455546 -8.482807
v -3.086069 2.455556 -8.070930
v -2.258836 2.460581 -8.456219
v -3.072613 2.460591 -8.044343
vt -0.388979 -1.337071
vt 0.680191 -1.283243
vt 0.680191 -1.337076
vt -0.388978 -1.283238
vt 0.680191 -1.233470
vt -0.388978 -1.187611
vt 0.680191 -1.187617
vt 0.680192 -1.145934
vt -0.388977 -1.145925
vt 0.680192 -1.108953
vt -0.388977 -1.108942
vt 0.680192 -1.077357
vt -0.388976 -1.051721
vt 0.680192 -1.051736
vt 0.680193 -1.032013
vt -0.388976 -1.031994
vt 0.680151 -1.013351
vt -0.389018 -1.013333
vt 0.680152 -0.994089
vt -0.389017 -0.994067
vt 0.680152 -0.965473
vt -0.389017 -0.965449
vt 0.680153 -0.923783
vt -0.389011 -0.709724
vt 0.680158 -0.709748
vt 0.680162 -0.504915
vt -0.389007 -0.504893
vt 0.680166 -0.305444
vt -0.389003 -0.305424
vt 0.680170 -0.106723
vt -0.389000 -0.106704
vt 0.680173 0.096443
vt -0.388996 0.096460
vt 0.680176 0.309505
vt -0.388993 0.309520
vt 0.680179 0.537816
vt -0.388990 0.537829
vt 0.680182 0.786373
vt -0.388988 0.786385
vt 0.680185 1.059696
vt -0.388985 1.059707
vt 0.680187 1.361817
vt -0.388983 1.361826
vt 0.680190 1.696337
vt -0.388980 1.696346
vt 0.680193 2.066513
vt -0.388977 2.066522
vt 0.680193 2.094046
vt -0.388977 2.094059
vt 0.680193 2.113628
vt -0.388977 2.113647
vt 0.680145 2.132289
vt -0.389072 2.150970
vt 0.680098 2.150951
vt 0.680081 2.169613
vt -0.389088 2.169632
vt 0.680082 2.188932
vt -0.389088 2.188958
vt 0.680082 2.209175
vt -0.389087 2.209207
vt 0.680083 2.229779
vt -0.389087 2.229812
vt 0.680083 2.250906
vt -0.389086 2.250942
vt 0.680084 2.273964
vt -0.389085 2.274002
vt 0.680085 2.301608
vt -0.389085 2.301648
vt 0.680087 2.337033
vt -0.388978 -1.233464
vt -0.388977 -1.077342
vt -0.389016 -0.923759
vt -0.389025 2.132308
vt -0.389083 2.337076
vn 0.0406 -0.9959 0.0803
vn 0.0758 -0.9858 0.1498
vn 0.1432 -0.9484 0.2830
vn 0.2052 -0.8907 0.4055
vn 0.2627 -0.8133 0.5191
vn 0.3180 -0.7100 0.6283
vn 0.3741 -0.5599 0.7392
vn 0.4298 -0.3068 0.8492
vn 0.4462 0.1545 0.8815
vn 0.3158 0.7147 0.6240
vn 0.0930 0.9785 0.1838
vn -0.0605 0.9910 -0.1194
vn -0.1221 0.9627 -0.2412
vn -0.1087 0.9705 -0.2148
vn -0.1087 0.9705 -0.2149
vn -0.0616 0.9906 -0.1216
vn -0.0074 0.9998 -0.0147
vn 0.0504 0.9937 0.0996
vn 0.1076 0.9712 0.2127
vn 0.1601 0.9350 0.3164
vn 0.2053 0.8907 0.4057
vn 0.2423 0.8438 0.4788
vn 0.2717 0.7986 0.5369
vn 0.2947 0.7577 0.5822
vn 0.3124 0.7221 0.6172
vn 0.3022 0.7431 0.5970
vn 0.2128 0.8820 0.4205
vn 0.0180 0.9992 0.0356
vn 0.0180 0.9992 0.0357
vn -0.2094 0.8859 -0.4139
vn -0.3631 0.5944 -0.7175
vn -0.4316 0.2942 -0.8527
vn -0.4515 0.0229 -0.8920
vn -0.4378 -0.2447 -0.8651
vn -0.3848 -0.5234 -0.7602
vn -0.2806 -0.7835 -0.5544
vn -0.1357 -0.9537 -0.2682
vn 0.0094 -0.9998 0.0186
vn 0.0752 -0.9860 0.1487
vn -0.2095 0.8859 -0.4139
s 1
f 75/75/47 78/76/48 76/77/47
f 77/78/48 80/79/49 78/76/48
f 80/79/49 81/80/50 82/81/50
f 81/80/50 84/82/51 82/81/50
f 83/83/51 86/84/52 84/82/51
f 85/85/52 88/86/53 86/84/52
f 88/86/53 89/87/54 90/88/54
f 89/87/54 92/89/55 90/88/54
f 91/90/55 94/91/56 92/89/55
f 93/92/56 96/93/57 94/91/56
f 95/94/57 98/95/58 96/93/57
f 97/96/58 100/97/59 98/95/58
f 100/97/59 101/98/60 102/99/61
f 101/98/60 104/100/62 102/99/61
f 103/101/62 106/102/63 104/100/62
f 105/103/63 108/104/64 106/102/63
f 107/105/64 110/106/65 108/104/64
f 109/107/65 112/108/66 110/106/65
f 111/109/66 114/110/67 112/108/66
f 113/111/67 116/112/68 114/110/67
f 115/113/68 118/114/69 116/112/68
f 117/115/69 120/116/70 118/114/69
f 119/117/70 122/118/71 120/116/70
f 121/119/71 124/120/72 122/118/71
f 123/121/72 126/122/73 124/120/72
f 125/123/73 128/124/74 126/122/73
f 127/125/75 130/126/76 128/124/74
f 130/126/76 131/127/77 132/128/77
f 131/127/77 134/129/78 132/128/77
f 133/130/78 136/131/79 134/129/78
f 135/132/79 138/133/80 136/131/79
f 137/134/80 140/135/81 138/133/80
f 139/136/81 142/137/82 140/135/81
f 141/138/82 144/139/83 142/137/82
f 143/140/83 146/141/84 144/139/83
f 145/142/84 148/143/85 146/141/84
f 75/75/47 77/78/48 78/76/48
f 77/78/48 79/144/49 80/79/49
f 80/79/49 79/144/49 81/80/50
f 81/80/50 83/83/51 84/82/51
f 83/83/51 85/85/52 86/84/52
f 85/85/52 87/145/53 88/86/53
f 88/86/53 87/145/53 89/87/54
f 89/87/54 91/90/55 92/89/55
f 91/90/55 93/92/56 94/91/56
f 93/92/56 95/94/57 96/93/57
f 95/94/57 97/96/58 98/95/58
f 97/96/58 99/146/59 100/97/59
f 100/97/59 99/146/59 101/98/60
f 101/98/60 103/101/62 104/100/62
f 103/101/62 105/103/63 106/102/63
f 105/103/63 107/105/64 108/104/64
f 107/105/64 109/107/65 110/106/65
f 109/107/65 111/109/66 112/108/66
f 111/109/66 113/111/67 114/110/67
f 113/111/67 115/113/68 116/112/68
f 115/113/68 117/115/69 118/114/69
f 117/115/69 119/117/70 120/116/70
f 119/117/70 121/119/71 122/118/71
f 121/119/71 123/121/72 124/120/72
f 123/121/72 125/123/73 126/122/73
f 125/123/73 127/125/75 128/124/74
f 127/125/75 129/147/86 130/126/76
f 130/126/76 129/147/86 131/127/77
f 131/127/77 133/130/78 134/129/78
f 133/130/78 135/132/79 136/131/79
f 135/132/79 137/134/80 138/133/80
f 137/134/80 139/136/81 140/135/81
f 139/136/81 141/138/82 142/137/82
f 141/138/82 143/140/83 144/139/83
f 143/140/83 145/142/84 146/141/84
f 145/142/84 147/148/85 148/143/85
