# Blender v2.80 (sub 75) OBJ File: 'pool.blend'
# www.blender.org
o chair_1_fabric_BezierCurve.002
v -5.797060 1.511455 0.002770
v -5.458857 1.511454 0.849819
v -5.754584 1.515586 -0.014189
v -5.416381 1.515586 0.832860
v -5.716352 1.525980 -0.029455
v -5.378148 1.525980 0.817594
v -5.682866 1.541146 -0.042825
v -5.344663 1.541146 0.804225
v -5.654633 1.559594 -0.054097
v -5.316431 1.559593 0.792952
v -5.632157 1.579831 -0.063071
v -5.293956 1.579830 0.783979
v -5.615944 1.600368 -0.069544
v -5.277743 1.600367 0.777505
v -5.606498 1.619714 -0.073316
v -5.268297 1.619712 0.773734
v -5.604323 1.636379 -0.074184
v -5.266123 1.636373 0.772866
v -5.609926 1.648870 -0.071947
v -5.271724 1.648862 0.775102
v -5.623811 1.655697 -0.066403
v -5.285605 1.655687 0.780645
v -5.646481 1.655367 -0.057352
v -5.308274 1.655358 0.789696
v -5.678442 1.646393 -0.044590
v -5.340234 1.646383 0.802457
v -5.840815 1.593768 0.020241
v -5.502607 1.593758 0.867288
v -6.000047 1.560077 0.083818
v -5.661840 1.560067 0.930866
v -6.157577 1.546558 0.146716
v -5.819372 1.546548 0.993764
v -6.314842 1.554451 0.209508
v -5.976638 1.554441 1.056557
v -6.473280 1.584996 0.272768
v -6.135077 1.584986 1.119817
v -6.634328 1.639430 0.337071
v -6.296126 1.639420 1.184120
v -6.799424 1.718993 0.402989
v -6.461224 1.718984 1.250039
v -6.970006 1.824926 0.471098
v -6.631806 1.824917 1.318149
v -7.147512 1.958466 0.541972
v -6.809312 1.958458 1.389022
v -7.333379 2.120853 0.616184
v -6.995180 2.120845 1.463234
v -7.529044 2.313327 0.694308
v -7.190845 2.313319 1.541359
v -7.735946 2.537127 0.776918
v -7.397747 2.537119 1.623969
v -7.752931 2.551869 0.783700
v -7.414730 2.551860 1.630750
v -7.767741 2.556856 0.789613
v -7.429536 2.556846 1.636662
v -7.780000 2.553861 0.794508
v -7.441790 2.553853 1.641555
v -7.789328 2.544660 0.798233
v -7.451115 2.544654 1.645278
v -7.795349 2.531027 0.800637
v -7.457135 2.531024 1.647682
v -7.797688 2.514737 0.801570
v -7.459473 2.514737 1.648615
v -7.795965 2.497565 0.800883
v -7.457751 2.497568 1.647928
v -7.789806 2.481285 0.798423
v -7.451593 2.481291 1.645469
v -7.778832 2.467672 0.794042
v -7.440622 2.467680 1.641088
v -7.762668 2.458501 0.787588
v -7.424461 2.458510 1.634636
v -7.740937 2.455546 0.778911
v -7.402733 2.455556 1.625960
v -7.713262 2.460581 0.767861
v -7.375060 2.460591 1.614911
vt -0.388979 -1.337071
vt 0.680191 -1.283243
vt 0.680191 -1.337076
vt -0.388978 -1.283238
vt 0.680191 -1.233470
vt -0.388978 -1.187611
vt 0.680191 -1.187617
vt 0.680192 -1.145934
vt -0.388977 -1.145925
vt 0.680192 -1.108953
vt -0.388977 -1.108942
vt 0.680192 -1.077357
vt -0.388976 -1.051721
vt 0.680192 -1.051736
vt 0.680193 -1.032013
vt -0.388976 -1.031994
vt 0.680151 -1.013351
vt -0.389018 -1.013333
vt 0.680152 -0.994089
vt -0.389017 -0.994067
vt 0.680152 -0.965473
vt -0.389017 -0.965449
vt 0.680153 -0.923783
vt -0.389011 -0.709724
vt 0.680158 -0.709748
vt 0.680162 -0.504915
vt -0.389007 -0.504893
vt 0.680166 -0.305444
vt -0.389003 -0.305424
vt 0.680170 -0.106723
vt -0.389000 -0.106704
vt 0.680173 0.096443
vt -0.388996 0.096460
vt 0.680176 0.309505
vt -0.388993 0.309520
vt 0.680179 0.537816
vt -0.388990 0.537829
vt 0.680182 0.786373
vt -0.388988 0.786385
vt 0.680185 1.059696
vt -0.388985 1.059707
vt 0.680187 1.361817
vt -0.388983 1.361826
vt 0.680190 1.696337
vt -0.388980 1.696346
vt 0.680193 2.066513
vt -0.388977 2.066522
vt 0.680193 2.094046
vt -0.388977 2.094059
vt 0.680193 2.113628
vt -0.388977 2.113647
vt 0.680145 2.132289
vt -0.389072 2.150970
vt 0.680098 2.150951
vt 0.680081 2.169613
vt -0.389088 2.169632
vt 0.680082 2.188932
vt -0.389088 2.188958
vt 0.680082 2.209175
vt -0.389087 2.209207
vt 0.680083 2.229779
vt -0.389087 2.229812
vt 0.680083 2.250906
vt -0.389086 2.250942
vt 0.680084 2.273964
vt -0.389085 2.274002
vt 0.680085 2.301608
vt -0.389085 2.301648
vt 0.680087 2.337033
vt -0.388978 -1.233464
vt -0.388977 -1.077342
vt -0.389016 -0.923759
vt -0.389025 2.132308
vt -0.389083 2.337076
vn 0.0835 -0.9959 -0.0334
vn 0.1559 -0.9858 -0.0623
vn 0.2945 -0.9484 -0.1176
vn 0.4221 -0.8907 -0.1685
vn 0.5403 -0.8133 -0.2157
vn 0.6540 -0.7100 -0.2611
vn 0.7695 -0.5599 -0.3072
vn 0.8839 -0.3068 -0.3529
vn 0.9175 0.1545 -0.3663
vn 0.6496 0.7147 -0.2593
vn 0.1913 0.9785 -0.0763
vn 0.1913 0.9785 -0.0764
vn -0.1243 0.9910 0.0497
vn -0.2510 0.9627 0.1002
vn -0.2236 0.9705 0.0893
vn -0.1266 0.9906 0.0506
vn -0.0153 0.9998 0.0061
vn 0.1037 0.9937 -0.0414
vn 0.2214 0.9712 -0.0884
vn 0.3293 0.9350 -0.1315
vn 0.4222 0.8907 -0.1686
vn 0.4984 0.8438 -0.1990
vn 0.5589 0.7986 -0.2231
vn 0.6060 0.7577 -0.2420
vn 0.6424 0.7221 -0.2565
vn 0.6214 0.7431 -0.2481
vn 0.4377 0.8820 -0.1747
vn 0.0371 0.9992 -0.0148
vn -0.4308 0.8859 0.1720
vn -0.7468 0.5944 0.2982
vn -0.8876 0.2942 0.3544
vn -0.9284 0.0229 0.3707
vn -0.9004 -0.2447 0.3595
vn -0.9005 -0.2447 0.3595
vn -0.7913 -0.5234 0.3160
vn -0.5770 -0.7835 0.2304
vn -0.2791 -0.9537 0.1115
vn 0.0194 -0.9998 -0.0077
vn 0.1547 -0.9860 -0.0618
vn -0.2510 0.9628 0.1002
vn 0.1547 -0.9860 -0.0617
s 1
f 1/1/1 4/2/2 2/3/1
f 3/4/2 6/5/3 4/2/2
f 6/5/3 7/6/4 8/7/4
f 7/6/4 10/8/5 8/7/4
f 9/9/5 12/10/6 10/8/5
f 11/11/6 14/12/7 12/10/6
f 14/12/7 15/13/8 16/14/8
f 15/13/8 18/15/9 16/14/8
f 17/16/9 20/17/10 18/15/9
f 19/18/10 22/19/11 20/17/10
f 21/20/12 24/21/13 22/19/11
f 23/22/13 26/23/14 24/21/13
f 26/23/14 27/24/15 28/25/15
f 27/24/15 30/26/16 28/25/15
f 29/27/16 32/28/17 30/26/16
f 31/29/17 34/30/18 32/28/17
f 33/31/18 36/32/19 34/30/18
f 35/33/19 38/34/20 36/32/19
f 37/35/20 40/36/21 38/34/20
f 39/37/21 42/38/22 40/36/21
f 41/39/22 44/40/23 42/38/22
f 43/41/23 46/42/24 44/40/23
f 45/43/24 48/44/25 46/42/24
f 47/45/25 50/46/26 48/44/25
f 49/47/26 52/48/27 50/46/26
f 51/49/27 54/50/28 52/48/27
f 53/51/28 56/52/29 54/50/28
f 56/52/29 57/53/30 58/54/30
f 57/53/30 60/55/31 58/54/30
f 59/56/31 62/57/32 60/55/31
f 61/58/32 64/59/33 62/57/32
f 63/60/34 66/61/35 64/59/33
f 65/62/35 68/63/36 66/61/35
f 67/64/36 70/65/37 68/63/36
f 69/66/37 72/67/38 70/65/37
f 71/68/38 74/69/39 72/67/38
f 1/1/1 3/4/2 4/2/2
f 3/4/2 5/70/3 6/5/3
f 6/5/3 5/70/3 7/6/4
f 7/6/4 9/9/5 10/8/5
f 9/9/5 11/11/6 12/10/6
f 11/11/6 13/71/7 14/12/7
f 14/12/7 13/71/7 15/13/8
f 15/13/8 17/16/9 18/15/9
f 17/16/9 19/18/10 20/17/10
f 19/18/10 21/20/12 22/19/11
f 21/20/12 23/22/13 24/21/13
f 23/22/13 25/72/40 26/23/14
f 26/23/14 25/72/40 27/24/15
f 27/24/15 29/27/16 30/26/16
f 29/27/16 31/29/17 32/28/17
f 31/29/17 33/31/18 34/30/18
f 33/31/18 35/33/19 36/32/19
f 35/33/19 37/35/20 38/34/20
f 37/35/20 39/37/21 40/36/21
f 39/37/21 41/39/22 42/38/22
f 41/39/22 43/41/23 44/40/23
f 43/41/23 45/43/24 46/42/24
f 45/43/24 47/45/25 48/44/25
f 47/45/25 49/47/26 50/46/26
f 49/47/26 51/49/27 52/48/27
f 51/49/27 53/51/28 54/50/28
f 53/51/28 55/73/29 56/52/29
f 56/52/29 55/73/29 57/53/30
f 57/53/30 59/56/31 60/55/31
f 59/56/31 61/58/32 62/57/32
f 61/58/32 63/60/34 64/59/33
f 63/60/34 65/62/35 66/61/35
f 65/62/35 67/64/36 68/63/36
f 67/64/36 69/66/37 70/65/37
f 69/66/37 71/68/38 72/67/38
f 71/68/38 73/74/41 74/69/39
